# xmcd
#
# Track frame offsets:
#	150
#	3978
#	35652
#	60586
#	98451
#	141919
#	176661
#	214523
#
# Disc length: 3432 seconds
#
# Revision: 1
# Processed by: cddbd v1.5.2PL0 Copyright (c) Steve Scherf et al.
# Submitted via: EZCDAudioConverter 6.0.9.1
#
DISCID=630d6608
DTITLE=Champion Jack Dupree - Live At Rockpalast - Cologne 1980
DYEAR=2017
DGENRE=Blues
TTITLE0=Intro
TTITLE1=I Don't Know
TTITLE2=One Scotch, One Bourbon, One Beer
TTITLE3=Schooldays
TTITLE4=Ain't That A Shame/Swanee River Hop/On Blueberry Hill
TTITLE5=Drinkin' Wine Spo-Dee-O-Dee
TTITLE6=Marriage (Talk)
TTITLE7=Bring Me Flowers (Whhile I'm Living)
EXTD=
EXTT0=
EXTT1=
EXTT2=
EXTT3=
EXTT4=
EXTT5=
EXTT6=
EXTT7=
PLAYORDER=
